<?xml version="1.0" encoding="utf-8"?>
<!-- Generator: Adobe Illustrator 22.1.0, SVG Export Plug-In . SVG Version: 6.00 Build 0)  -->
<svg version="1.1" id="Layer_1" xmlns="http://www.w3.org/2000/svg" xmlns:xlink="http://www.w3.org/1999/xlink" x="0px" y="0px"
	 viewBox="0 0 495.3 504.7" style="enable-background:new 0 0 495.3 504.7;" xml:space="preserve">
<style type="text/css">
	.st0{fill:#7BC9BD;}
	.st1{fill:#6EB4A9;}
	.st2{fill:#F9B48C;}
	.st3{fill:#F58E54;}
	.st4{fill:#333334;}
	.st5{fill:#FFD300;}
</style>
<g>
	<g>
		<path class="st0" d="M157.7,434.9c0,0-82.6,22.2-82.6,48.8c0,26.7,254.6,14.3,273.6,4.2C367.6,477.7,323.6,416,157.7,434.9z"/>
		<path class="st1" d="M177.7,442.5c0,0-54.3,12.4-54.3,27.3s167.3,8,179.8,2.4C315.6,466.4,286.7,432,177.7,442.5z"/>
		<path class="st1" d="M304.3,439.2c-1.5-1.4,8.1-21.9,9.1-14C314.5,433,304.3,439.2,304.3,439.2z"/>
		<path class="st1" d="M310.5,442.1c-1.2-1.1,6.3-17.1,7.1-11C318.4,437.3,310.5,442.1,310.5,442.1z"/>
		<path class="st1" d="M300.1,436.3c-1.5,0-4.9-17.7-0.8-13.6C303.4,426.8,300.1,436.3,300.1,436.3z"/>
		<path class="st1" d="M122.1,442.7c-1.5,0.4-8.3-16.2-3.4-13.2C123.5,432.5,122.1,442.7,122.1,442.7z"/>
		<path class="st1" d="M126.7,439.7c-1.1,0.3-6.5-12.6-2.7-10.3C127.8,431.8,126.7,439.7,126.7,439.7z"/>
		<path class="st1" d="M118.5,444.3c-0.7,1.1-12.1-4.9-7.9-5.9C114.8,437.4,118.5,444.3,118.5,444.3z"/>
	</g>
	<g>
		<g>
			<g>
				<g>
					<path d="M233.5,337.3c0,0,36.3-29.7,66.2-9.3c2.3,0.5,7.4-7.6-1.9-13.3c-9.3-5.7-64.7-16.7-79.5,9.7L233.5,337.3z"/>
					<path d="M303.2,322.9c0,0-0.7-46.6-6.4-45.1C291.1,279.4,277.9,293,303.2,322.9z"/>
				</g>
				<path d="M278.5,220.9c0,0-16.3,23.2-40.3,12.4l0.1-16.3c0,0,22.5,17.8,38.9-0.4C277.2,216.6,279.8,219.2,278.5,220.9z"/>
				<path d="M70.7,276.1c0,0,25.1,13.1,41.5-7.6l-7.6-14.4c0,0-11.7,26.2-34.7,17.6C69.8,271.7,68.8,275.3,70.7,276.1z"/>
				<path d="M242.6,239.4c11.2,60.4,14.3,68.6,7.4,80.2c-33.4,56.2-113.1,77.7-154.8-85.3C76.7,162,113.7,92.7,176.4,74
					C288.3,40.5,229,165.9,242.6,239.4z"/>
				<path d="M91.8,188c0,0,66,66.1,145.4,30c0,0-32,34.8-73.4,24.6s16,112.4,56.5,108.8c0,0-50.9,31.6-84.2-14.3
					C106.6,296.3,84,216.6,91.8,188z"/>
				<g>
					<path d="M177.8,361c0,0,46,9.3,49.2,45.3c1.1,2.1,10.5,0.9,9.1-9.9c-1.5-10.8-30.2-58.7-56.9-61.7L177.8,361z"/>
					<path d="M233,405.9c0,0,35.6-30,30.9-33.5C259.1,368.9,240.2,367.4,233,405.9z"/>
				</g>
				<g>
					<path d="M66.6,145.2c0,0-32.6,18.7-18.4,37.7C62.3,201.9,4,213.5,4,213.5s23.3,21.3,48,9.6c24.7-11.6,20.2-22.4,20.2-22.4
						S66.3,251,87,257.3c0,0-4-34.8,10.5-38.7C112,214.6,96.3,137.1,66.6,145.2z"/>
					<path d="M257.2,41.1c48,57.2,55.8,105.1-15.9,165.3c-50.1,42-117.5,44.1-165.5-13.1C27.7,136.1,61.9,89.7,112,47.7
						C162.1,5.6,209.2-16.1,257.2,41.1z"/>
					<path class="st2" d="M89.7,170.5c0,0,80-114.1,163.6-131.8c0,0,35.1,20.7-46.4,89C110.4,208.6,89.7,170.5,89.7,170.5z"/>
					<path class="st3" d="M253.3,38.7c0,0-117.4,51.3-146.6,121.2c0.6,25.3,40.9,8.8,40.9,8.8s-39.8,24.5-58.5,2.3
						C89.1,170.9,159.2,58.3,253.3,38.7z"/>
					<path class="st4" d="M123.5,157.5c0,0,0.4-20.2,13-26.9C136.5,130.6,111.5,135.9,123.5,157.5z"/>
					<path class="st4" d="M207.2,70.4c0,0,13.4-15.1,27.4-12.1C234.6,58.4,212.1,46.3,207.2,70.4z"/>
				</g>
				<path class="st4" d="M225.7,79.7c0,0-2.2-11.7,1.1-12.5c3.3-0.7,9-3,9.5-0.8c0.6,2.2-8.6,2.8-8.1,6.5
					C228.8,76.6,228.1,82.6,225.7,79.7z"/>
				<path class="st4" d="M132.6,162.9c0,0-2.2-11.7,1.1-12.5c3.3-0.7,9-3,9.5-0.8c0.6,2.2-8.6,2.8-8.1,6.5
					C135.7,159.7,134.9,165.8,132.6,162.9z"/>
				<path class="st4" d="M276.7,217.1c0,0-0.8-4.7,0.3-4.9c1.1-0.2,0.4,2.8,1,2.5s1.5-5,2.5-4.4s-1,3.1,0,3.3c1,0.1,1.9-2.5,2.6-1.2
					c0.7,1.4-1.8,1.9-1.8,1.9s2.5,0.1,1.8,1.1c-0.6,1-1.5,0.4-1.5,0.4s-0.8,3.4-3.2,5.2C278.5,220.9,275.4,219.6,276.7,217.1z"/>
				<path class="st4" d="M69.9,271.9c0,0-2.7-3.9-3.6-3.4c-0.9,0.6,1.6,2.3,0.9,2.5c-0.6,0.2-4.5-2.5-4.9-1.4
					c-0.3,1.1,2.9,1.6,2.3,2.3c-0.6,0.8-3.1-0.5-2.7,0.9c0.4,1.5,2.6,0.2,2.6,0.2s-1.7,1.8-0.6,2c1.1,0.3,1.4-0.8,1.4-0.8
					s2.9,1.8,5.9,1.6C71.2,275.9,72.6,272.8,69.9,271.9z"/>
			</g>
		</g>
	</g>
</g>
<path class="st5" d="M391,138.4c-1.2,0.2-2.3,0.5-3.4,1.1L290.3,188c-2.7,1.3-4.7,3.6-5.6,6.5c-0.9,2.8-0.7,5.9,0.6,8.6l24.4,48.8
	c2.2,4.3,6.8,6.8,11.6,6.1c1.2-0.2,2.3-0.5,3.4-1.1l97.3-48.6c5.5-2.8,7.8-9.5,5-15l-24.4-48.8C400.5,140.1,395.8,137.7,391,138.4z
	 M320.4,208.6c0.1,0.2,0.1,0.5,0.2,0.6c0,0.2,0,0.3-0.1,0.4c-0.1,0.1-0.1,0.2-0.2,0.2l-5.5,2.8l8.9,17.8c0.1,0.1,0.1,0.2,0,0.4
	c0,0.1-0.1,0.3-0.3,0.4c-0.1,0.1-0.4,0.3-0.6,0.5c-0.3,0.2-0.6,0.4-1.1,0.6c-0.4,0.2-0.8,0.4-1.1,0.5c-0.3,0.1-0.6,0.2-0.8,0.2
	c-0.2,0-0.4,0-0.5,0c-0.1-0.1-0.2-0.1-0.3-0.3l-8.9-17.8l-5.5,2.8c-0.1,0.1-0.2,0.1-0.3,0c-0.1,0-0.2-0.1-0.4-0.2
	c-0.1-0.1-0.3-0.3-0.4-0.5s-0.3-0.5-0.5-0.8s-0.3-0.6-0.4-0.9c-0.1-0.3-0.1-0.5-0.2-0.6c0-0.2,0-0.3,0.1-0.4c0-0.1,0.1-0.2,0.2-0.2
	l15.6-7.8c0.1-0.1,0.2-0.1,0.3,0c0.1,0,0.2,0.1,0.4,0.2c0.1,0.1,0.3,0.3,0.4,0.5s0.3,0.5,0.5,0.9
	C320.2,208.1,320.3,208.3,320.4,208.6z M337,223.8c0.1,0.1,0.1,0.2,0,0.4c0,0.1-0.1,0.3-0.3,0.4c-0.1,0.1-0.3,0.3-0.6,0.5
	c-0.3,0.2-0.6,0.4-1.1,0.6c-0.4,0.2-0.8,0.4-1.1,0.5c-0.3,0.1-0.6,0.2-0.8,0.2c-0.2,0-0.4,0-0.5,0c-0.1-0.1-0.2-0.1-0.3-0.3
	L322,205.2c-0.1-0.1-0.1-0.2,0-0.4c0-0.1,0.1-0.3,0.3-0.4c0.1-0.1,0.4-0.3,0.6-0.5c0.3-0.2,0.6-0.4,1.1-0.6c0.4-0.2,0.8-0.4,1.1-0.5
	c0.3-0.1,0.6-0.2,0.8-0.2c0.2,0,0.4,0,0.5,0c0.1,0.1,0.2,0.1,0.3,0.3L337,223.8z M356,211.8c0.1,0.2,0.1,0.4,0.2,0.6
	c0,0.2,0.1,0.3,0,0.4c0,0.1,0,0.3-0.1,0.5s-0.2,0.5-0.5,0.9s-0.6,0.8-1,1.2s-0.9,0.9-1.5,1.4s-1.3,0.9-2.1,1.3
	c-1.5,0.8-3,1.2-4.5,1.3s-2.8,0-4.2-0.5c-1.3-0.5-2.6-1.3-3.7-2.5c-1.2-1.2-2.2-2.7-3.1-4.5c-0.9-1.9-1.5-3.7-1.8-5.4
	c-0.2-1.7-0.1-3.3,0.3-4.7s1.1-2.7,2.1-3.9c1-1.1,2.3-2.1,3.8-2.8c0.6-0.3,1.2-0.6,1.9-0.7c0.6-0.2,1.2-0.3,1.8-0.4
	c0.6-0.1,1.1-0.1,1.6-0.1s0.9,0.1,1.1,0.1c0.2,0.1,0.4,0.2,0.5,0.2c0.1,0.1,0.2,0.2,0.3,0.3c0.1,0.1,0.2,0.3,0.4,0.5
	c0.1,0.2,0.3,0.5,0.4,0.8c0.2,0.3,0.3,0.6,0.4,0.9c0.1,0.3,0.2,0.5,0.2,0.6c0,0.2,0,0.3,0,0.4c0,0.1-0.1,0.2-0.2,0.2
	c-0.2,0.1-0.4,0.1-0.8,0s-0.8-0.1-1.3-0.2c-0.5,0-1.1,0-1.8,0.1c-0.7,0.1-1.4,0.3-2.2,0.7c-0.9,0.4-1.6,1-2.1,1.7s-0.8,1.5-1,2.4
	s-0.1,1.9,0.1,3s0.6,2.2,1.2,3.4c0.6,1.3,1.3,2.4,2.1,3.2c0.7,0.8,1.5,1.4,2.3,1.8c0.8,0.4,1.6,0.5,2.5,0.5s1.7-0.3,2.6-0.7
	c0.8-0.4,1.4-0.8,1.9-1.3s0.9-0.9,1.2-1.4c0.3-0.4,0.5-0.8,0.7-1.1s0.3-0.5,0.5-0.6c0.1-0.1,0.2-0.1,0.3-0.1c0.1,0,0.2,0.1,0.3,0.2
	c0.1,0.1,0.2,0.3,0.4,0.5c0.1,0.2,0.3,0.6,0.5,1C355.9,211.3,356,211.6,356,211.8z M376.5,204.4c0,0.1-0.1,0.3-0.2,0.4
	c-0.1,0.2-0.4,0.3-0.7,0.5c-0.3,0.2-0.7,0.4-1.1,0.6c-0.7,0.4-1.3,0.6-1.6,0.7c-0.4,0.1-0.6,0.1-0.8,0.1c-0.2,0-0.4-0.1-0.5-0.2
	l-11.9-7.2l5.2,10.5c0.1,0.1,0.1,0.3,0.1,0.4c0,0.1-0.1,0.3-0.2,0.4c-0.1,0.1-0.3,0.3-0.6,0.5c-0.3,0.2-0.6,0.4-1.1,0.6
	c-0.4,0.2-0.8,0.4-1.1,0.5c-0.3,0.1-0.6,0.2-0.8,0.2c-0.2,0-0.4,0-0.5,0c-0.1-0.1-0.2-0.1-0.3-0.3L350,191.3
	c-0.1-0.1-0.1-0.3-0.1-0.4c0-0.1,0.1-0.3,0.3-0.4c0.1-0.1,0.4-0.3,0.6-0.5c0.3-0.2,0.6-0.4,1.1-0.6c0.4-0.2,0.8-0.4,1.1-0.5
	c0.3-0.1,0.6-0.2,0.8-0.2c0.2,0,0.4,0,0.5,0c0.1,0.1,0.2,0.1,0.3,0.3l4.7,9.4l1.8-12.6c0-0.2,0-0.4,0.1-0.5c0.1-0.2,0.2-0.3,0.3-0.5
	c0.2-0.1,0.4-0.3,0.6-0.5c0.3-0.2,0.6-0.4,1.1-0.6c0.5-0.2,0.8-0.4,1.2-0.5c0.3-0.1,0.6-0.2,0.8-0.2c0.2,0,0.4,0,0.5,0
	c0.1,0.1,0.2,0.1,0.3,0.3c0.1,0.2,0.1,0.4,0.1,0.7s0,0.7-0.1,1.3l-2.1,11l11.6,6.7c0.5,0.3,0.8,0.6,0.9,0.7c0.1,0.1,0.2,0.2,0.3,0.3
	C376.5,204.1,376.5,204.3,376.5,204.4z M392.4,195.7c0.1,0.2,0.1,0.4,0.1,0.6c0,0.2,0,0.3-0.1,0.4c-0.1,0.1-0.1,0.2-0.2,0.2
	l-11.1,5.6c-0.4,0.2-0.7,0.2-1.1,0.1c-0.4-0.1-0.7-0.4-0.9-0.9l-9.6-19.3c-0.3-0.5-0.3-0.9-0.2-1.3c0.1-0.4,0.4-0.6,0.8-0.8l11-5.5
	c0.1-0.1,0.2-0.1,0.3-0.1c0.1,0,0.2,0.1,0.4,0.2c0.1,0.1,0.3,0.3,0.4,0.5s0.3,0.5,0.5,0.8s0.3,0.6,0.4,0.8s0.1,0.4,0.1,0.6
	c0,0.2,0,0.3-0.1,0.4c0,0.1-0.1,0.2-0.2,0.2l-7.9,3.9l2.7,5.4l6.7-3.3c0.1-0.1,0.2-0.1,0.3,0c0.1,0,0.2,0.1,0.4,0.2
	c0.1,0.1,0.3,0.3,0.4,0.5s0.3,0.5,0.4,0.8c0.2,0.3,0.3,0.6,0.4,0.8s0.1,0.4,0.1,0.6c0,0.2,0,0.3-0.1,0.4c-0.1,0.1-0.1,0.2-0.2,0.2
	l-6.7,3.3l3.1,6.2l8-4c0.1-0.1,0.2-0.1,0.3,0c0.1,0,0.2,0.1,0.4,0.2c0.1,0.1,0.3,0.3,0.4,0.5s0.3,0.5,0.5,0.8
	C392.1,195.2,392.3,195.5,392.4,195.7z M401.8,167.9c0.1,0.2,0.1,0.5,0.2,0.6c0,0.2,0,0.3-0.1,0.4c-0.1,0.1-0.1,0.2-0.2,0.2
	l-5.5,2.8l8.9,17.8c0.1,0.1,0.1,0.2,0,0.4c0,0.1-0.1,0.3-0.3,0.4c-0.1,0.1-0.4,0.3-0.6,0.5c-0.3,0.2-0.6,0.4-1.1,0.6
	c-0.4,0.2-0.8,0.4-1.1,0.5c-0.3,0.1-0.6,0.2-0.8,0.2c-0.2,0-0.4,0-0.5,0c-0.1-0.1-0.2-0.1-0.3-0.3l-8.9-17.8L386,177
	c-0.1,0.1-0.2,0.1-0.3,0c-0.1,0-0.2-0.1-0.4-0.2c-0.1-0.1-0.3-0.3-0.4-0.5s-0.3-0.5-0.5-0.8s-0.3-0.6-0.4-0.9
	c-0.1-0.3-0.1-0.5-0.2-0.6c0-0.2,0-0.3,0.1-0.4c0-0.1,0.1-0.2,0.2-0.2l15.6-7.8c0.1-0.1,0.2-0.1,0.3,0c0.1,0,0.2,0.1,0.4,0.2
	c0.1,0.1,0.3,0.3,0.4,0.5s0.3,0.5,0.5,0.9C401.6,167.4,401.7,167.7,401.8,167.9z M456.6,113.3l-3-6.1c-8.8,4.4-17-0.4-21.4-9.2
	l-26,13l2,4c0.4,0.9,0.1,1.9-0.8,2.4c-0.2,0.1-0.4,0.1-0.5,0.2c-0.7,0.1-1.5-0.3-1.8-1l-2-4l-136.6,68.2c4.4,8.8,3.3,18.3-5.5,22.7
	l3,6.1c2.5-1.3,5.6-0.2,6.8,2.3c1.3,2.5,0.2,5.6-2.3,6.8l3.2,6.4c2.5-1.3,5.6-0.2,6.8,2.3c1.3,2.5,0.2,5.6-2.3,6.8l3.2,6.4
	c2.5-1.3,5.6-0.2,6.8,2.3c1.3,2.5,0.2,5.6-2.3,6.8l3.2,6.4c2.5-1.3,5.6-0.2,6.8,2.3c1.3,2.5,0.2,5.6-2.3,6.8l3,6.1
	c8.8-4.4,17,0.4,21.4,9.2l136.6-68.2l-2-4c-0.4-0.9-0.1-1.9,0.8-2.4c0.9-0.4,1.9-0.1,2.4,0.8l2,4l26-13c-4.4-8.8-3.3-18.3,5.5-22.7
	l-3-6.1c-2.5,1.3-5.6,0.2-6.8-2.3c-1.3-2.5-0.2-5.6,2.3-6.8l-3.2-6.4c-2.5,1.3-5.6,0.2-6.8-2.3c-1.3-2.5-0.2-5.6,2.3-6.8l-3.2-6.4
	c-2.5,1.3-5.6,0.2-6.8-2.3c-1.3-2.5-0.2-5.6,2.3-6.8l-3.2-6.4c-2.5,1.3-5.6,0.2-6.8-2.3C453.1,117.6,454.1,114.6,456.6,113.3z
	 M430.2,191.7c3.6,7.3,0.7,16.1-6.6,19.8L326.3,260c-1.4,0.7-2.9,1.2-4.5,1.4c-6.3,0.9-12.4-2.3-15.3-8l-24.4-48.8
	c-1.8-3.5-2-7.5-0.8-11.3c1.2-3.7,3.9-6.8,7.4-8.5l97.3-48.6c1.4-0.7,2.9-1.2,4.5-1.4c6.3-0.9,12.4,2.3,15.3,8L430.2,191.7z
	 M449.4,197.6c0.4,0.9,0.1,1.9-0.8,2.4c-0.2,0.1-0.4,0.1-0.5,0.2c-0.7,0.1-1.5-0.3-1.8-1l-3.8-7.5c-0.4-0.9-0.1-1.9,0.8-2.4
	c0.9-0.4,1.9-0.1,2.4,0.8L449.4,197.6z M441.1,181.1c0.4,0.9,0.1,1.9-0.8,2.4c-0.2,0.1-0.4,0.1-0.5,0.2c-0.7,0.1-1.5-0.3-1.8-1
	l-3.8-7.5c-0.4-0.9-0.1-1.9,0.8-2.4c0.9-0.4,1.9-0.1,2.4,0.8L441.1,181.1z M432.9,164.5c0.4,0.9,0.1,1.9-0.8,2.4
	c-0.2,0.1-0.4,0.1-0.5,0.2c-0.7,0.1-1.5-0.3-1.8-1l-3.8-7.5c-0.4-0.9-0.1-1.9,0.8-2.4c0.9-0.4,1.9-0.1,2.4,0.8L432.9,164.5z
	 M424.6,148c0.4,0.9,0.1,1.9-0.8,2.4c-0.2,0.1-0.4,0.1-0.5,0.2c-0.7,0.1-1.5-0.3-1.8-1l-3.8-7.5c-0.4-0.9-0.1-1.9,0.8-2.4
	c0.9-0.4,1.9-0.1,2.4,0.8L424.6,148z M416.4,131.5c0.4,0.9,0.1,1.9-0.8,2.4c-0.2,0.1-0.4,0.1-0.5,0.2c-0.7,0.1-1.5-0.3-1.8-1
	l-3.8-7.5c-0.4-0.9-0.1-1.9,0.8-2.4c0.9-0.4,1.9-0.1,2.4,0.8L416.4,131.5z M423,122.6c0-0.1-0.1-0.2-0.1-0.2c0-0.1,0-0.2,0.1-0.3
	c0-0.1,0.1-0.2,0.2-0.2c0.1-0.1,0.2-0.1,0.3-0.2c0.1-0.1,0.2-0.1,0.3-0.1c0.1,0,0.2,0,0.3,0c0.1,0,0.2,0,0.3,0.1
	c0.1,0,0.2,0.1,0.2,0.2l1.1,2.3l8.5-4.3l-2.2-1.4c-0.1-0.1-0.2-0.2-0.3-0.3c-0.1-0.1-0.1-0.3-0.1-0.4s0.1-0.2,0.2-0.3
	c0.1-0.1,0.2-0.1,0.4-0.2c0.1-0.1,0.2-0.1,0.3-0.1c0.1,0,0.2-0.1,0.3-0.1c0.1,0,0.2,0,0.3,0c0.1,0,0.1,0.1,0.2,0.1l3.1,1.9l0.1,0.1
	l0.1,0.1c0,0.1,0.1,0.1,0.1,0.2s0.1,0.2,0.1,0.3c0.1,0.2,0.1,0.3,0.2,0.4c0,0.1,0.1,0.2,0.1,0.3c0,0.1,0,0.2-0.1,0.3
	c0,0.1-0.1,0.1-0.2,0.2l-10.3,5.1l1,2c0,0.1,0.1,0.2,0,0.3c0,0.1,0,0.2-0.1,0.3s-0.1,0.1-0.2,0.2c-0.1,0.1-0.2,0.1-0.3,0.2
	c-0.1,0.1-0.2,0.1-0.4,0.1c-0.1,0-0.2,0-0.3,0c-0.1,0-0.2,0-0.3-0.1c-0.1-0.1-0.1-0.1-0.2-0.2L423,122.6z M444.5,164.5
	c-0.1,0-0.2,0.1-0.3,0c-0.1,0-0.2-0.1-0.3-0.1c-0.1-0.1-0.1-0.1-0.2-0.3c-0.1-0.1-0.1-0.2-0.2-0.4s-0.1-0.3-0.2-0.4
	c0-0.1-0.1-0.2-0.1-0.3s0-0.2,0.1-0.3c0-0.1,0.1-0.1,0.2-0.2l2.3-1.2l-2.3-4.7c0-0.1-0.1-0.2-0.1-0.3s0-0.2,0.1-0.3
	c0-0.1,0.1-0.2,0.2-0.3s0.2-0.1,0.4-0.2c0.1-0.1,0.2-0.1,0.3-0.2c0.1,0,0.2-0.1,0.3-0.1c0.1,0,0.2,0,0.3,0c0.1,0,0.2,0,0.3,0
	l9.4,0.6c0.1,0,0.2,0,0.3,0.1c0.1,0.1,0.2,0.1,0.3,0.2c0.1,0.1,0.2,0.2,0.2,0.4c0.1,0.1,0.2,0.3,0.3,0.5c0.1,0.2,0.2,0.4,0.3,0.6
	c0.1,0.2,0.1,0.3,0.1,0.4c0,0.1,0,0.3,0,0.4c0,0.2-0.1,0.3-0.2,0.3l-7.4,3.7l0.6,1.1c0.1,0.1,0.1,0.3,0,0.6
	c-0.1,0.2-0.3,0.3-0.5,0.4c-0.2,0.1-0.4,0.2-0.6,0.2s-0.4-0.1-0.5-0.3l-0.6-1.1L444.5,164.5z M447.5,171.3c-0.1-0.3-0.1-0.6-0.1-0.8
	c0-0.3,0-0.4,0-0.5s0.1-0.2,0.1-0.2l0.1-0.1c0.1-0.1,0.1-0.1,0.2-0.2c0.1,0,0.2-0.1,0.3-0.2c0.1-0.1,0.2-0.1,0.3-0.1
	c0.1,0,0.2-0.1,0.3-0.1c0.1,0,0.2,0,0.3,0.1c0.1,0,0.1,0.1,0.2,0.2c0.1,0.1,0.1,0.2,0.1,0.5c0,0.2,0,0.4,0,0.6
	c0,0.3,0.1,0.6,0.1,0.9c0.1,0.3,0.2,0.7,0.4,1.2c0.2,0.4,0.4,0.7,0.7,1c0.2,0.3,0.5,0.5,0.8,0.6s0.6,0.2,1,0.2s0.7-0.1,1.2-0.3
	c0.4-0.2,0.6-0.4,0.8-0.6c0.2-0.2,0.3-0.5,0.4-0.8s0-0.7,0-1.1c-0.1-0.4-0.3-0.9-0.5-1.4c-0.2-0.4-0.4-0.7-0.5-0.9
	c-0.2-0.3-0.3-0.5-0.4-0.8c-0.1-0.2-0.1-0.4-0.1-0.6c0.1-0.2,0.2-0.3,0.5-0.5l4.8-2.4c0.3-0.1,0.5-0.2,0.7-0.1
	c0.2,0.1,0.4,0.2,0.5,0.4l2.6,5.3c0,0.1,0.1,0.2,0.1,0.3s0,0.2-0.1,0.3s-0.1,0.2-0.2,0.2c-0.1,0.1-0.2,0.1-0.3,0.2
	c-0.3,0.1-0.5,0.2-0.7,0.2c-0.3,0-0.5-0.2-0.5-0.3l-2-4.1l-2.9,1.5c0.1,0.1,0.2,0.3,0.2,0.4c0.1,0.2,0.2,0.5,0.4,0.8
	c0.3,0.7,0.6,1.3,0.6,1.9c0.1,0.6,0.1,1.2-0.1,1.7c-0.1,0.5-0.4,1-0.8,1.4s-0.8,0.7-1.3,1c-0.7,0.3-1.3,0.5-1.9,0.6
	c-0.6,0-1.2-0.1-1.8-0.3c-0.6-0.2-1.1-0.6-1.6-1.1s-0.9-1.1-1.2-1.7c-0.2-0.4-0.3-0.8-0.5-1.1C447.6,172,447.5,171.6,447.5,171.3z
	 M468.2,182c0.1,0.3,0.2,0.5,0.2,0.7c0.1,0.2,0.1,0.4,0.1,0.6c0,0.2,0,0.3,0,0.4c0,0.1-0.1,0.2-0.1,0.2c0,0.1-0.1,0.1-0.1,0.2
	c0,0-0.1,0.1-0.2,0.1s-0.1,0.1-0.2,0.1c-0.1,0.1-0.2,0.1-0.3,0.1c-0.1,0-0.2,0.1-0.3,0.1c-0.1,0-0.2,0-0.3-0.1
	c-0.2-0.1-0.3-0.3-0.3-0.6c0-0.1,0-0.3-0.1-0.5c0-0.2-0.1-0.4-0.2-0.6c-0.1-0.2-0.2-0.5-0.3-0.8c-0.3-0.5-0.6-0.9-1-1.2
	s-0.9-0.4-1.3-0.5c-0.5-0.1-1,0-1.6,0.1c-0.4,0.1-0.9,0.2-1.3,0.4c0.1,0.1,0.2,0.1,0.2,0.2c0.2,0.2,0.4,0.3,0.6,0.5s0.4,0.4,0.6,0.7
	c0.2,0.2,0.4,0.5,0.5,0.8c0.3,0.7,0.5,1.3,0.6,1.8c0,0.6,0,1.1-0.2,1.5c-0.2,0.5-0.5,0.9-0.9,1.2s-0.8,0.6-1.3,0.9
	c-0.5,0.3-1.1,0.5-1.7,0.5c-0.6,0.1-1.2,0.1-1.7-0.1c-0.6-0.2-1.1-0.4-1.6-0.9c-0.5-0.4-0.9-1-1.3-1.7c-0.3-0.5-0.4-1-0.5-1.5
	s-0.1-0.9,0-1.3c0.1-0.4,0.3-0.8,0.5-1.2s0.6-0.7,0.9-1.1c0.4-0.3,0.8-0.7,1.3-1s1-0.6,1.6-0.9c0.5-0.3,1.1-0.5,1.6-0.7
	c0.6-0.2,1.1-0.4,1.7-0.5s1.1-0.1,1.7-0.1s1.1,0.2,1.6,0.4s1,0.5,1.5,1c0.5,0.4,0.9,1,1.2,1.7C468,181.5,468.1,181.7,468.2,182z
	 M449.5,144.9c0.1,0.5,0,1-0.1,1.4s-0.3,0.8-0.7,1.2c-0.3,0.3-0.7,0.6-1.2,0.9c-0.4,0.2-0.8,0.3-1.2,0.4c-0.4,0.1-0.8,0.1-1.2,0
	c-0.4-0.1-0.7-0.2-1.1-0.4c-0.1-0.1-0.2-0.1-0.3-0.2c0,0.2,0,0.4,0.1,0.5c0,0.4-0.1,0.9-0.2,1.3c-0.1,0.4-0.3,0.8-0.6,1.1
	c-0.3,0.3-0.6,0.6-1,0.8c-0.6,0.3-1.1,0.4-1.7,0.5c-0.6,0-1.1-0.1-1.6-0.3s-1-0.5-1.5-1c-0.4-0.5-0.8-1-1.2-1.7
	c-0.2-0.4-0.4-0.8-0.5-1.2s-0.2-0.7-0.2-1.1c0-0.3-0.1-0.6-0.1-0.8c0-0.3,0-0.4,0-0.5s0.1-0.2,0.1-0.2c0-0.1,0.1-0.1,0.2-0.2
	c0.1-0.1,0.1-0.1,0.2-0.2c0.1-0.1,0.2-0.1,0.3-0.2c0.3-0.1,0.4-0.2,0.6-0.2s0.3,0.1,0.4,0.2c0,0.1,0.1,0.2,0,0.5c0,0.2,0,0.5,0,0.8
	s0.1,0.7,0.1,1c0.1,0.4,0.2,0.8,0.4,1.2c0.2,0.4,0.4,0.7,0.7,1c0.2,0.2,0.5,0.4,0.8,0.5s0.5,0.1,0.8,0.1s0.6-0.1,0.8-0.2
	c0.3-0.2,0.6-0.4,0.7-0.6c0.2-0.2,0.3-0.5,0.4-0.9c0.1-0.3,0-0.7,0-1.1c-0.1-0.4-0.2-0.9-0.5-1.3l-0.6-1.2c0-0.1-0.1-0.2-0.1-0.3
	s0-0.2,0.1-0.3c0-0.1,0.1-0.2,0.2-0.2c0.1-0.1,0.2-0.1,0.3-0.2c0.1-0.1,0.2-0.1,0.4-0.1c0.1,0,0.2,0,0.3,0c0.1,0,0.2,0.1,0.3,0.1
	c0.1,0.1,0.1,0.1,0.2,0.2l0.5,1c0.2,0.4,0.4,0.7,0.7,1c0.2,0.2,0.5,0.4,0.8,0.5s0.6,0.2,0.9,0.1c0.3,0,0.6-0.1,0.9-0.3
	c0.2-0.1,0.4-0.3,0.6-0.4c0.2-0.2,0.3-0.4,0.4-0.6c0.1-0.2,0.1-0.4,0.1-0.7s-0.1-0.6-0.3-0.9c-0.2-0.3-0.4-0.6-0.6-0.8
	s-0.5-0.4-0.7-0.6c-0.2-0.2-0.4-0.3-0.6-0.4c-0.2-0.1-0.4-0.2-0.4-0.3s-0.1-0.1-0.1-0.2c0-0.1,0-0.2,0.1-0.3s0.1-0.1,0.2-0.2
	c0.1-0.1,0.2-0.1,0.3-0.2c0.1,0,0.2-0.1,0.3-0.1c0.1,0,0.2-0.1,0.3-0.1c0.1,0,0.1,0,0.2,0s0.2,0,0.3,0.1c0.1,0,0.3,0.1,0.5,0.2
	c0.2,0.1,0.4,0.3,0.7,0.5c0.2,0.2,0.5,0.5,0.7,0.8c0.3,0.3,0.5,0.7,0.7,1.1C449.2,143.9,449.4,144.4,449.5,144.9z M443.4,132.8
	c0.1,0.5,0,1-0.1,1.5s-0.4,0.9-0.7,1.2c-0.3,0.3-0.7,0.6-1.2,0.9c-0.4,0.2-0.8,0.4-1.2,0.5c-0.4,0.1-0.9,0.2-1.5,0.2s-1.2-0.1-2-0.2
	c-0.7-0.1-1.7-0.4-2.7-0.7l-2.4-0.7l2.4,4.7c0,0.1,0.1,0.2,0.1,0.3s0,0.2-0.1,0.3s-0.1,0.2-0.2,0.2c-0.1,0.1-0.2,0.1-0.3,0.2
	c-0.1,0.1-0.2,0.1-0.3,0.1c-0.1,0-0.2,0.1-0.3,0.1c-0.1,0-0.2,0-0.3-0.1c-0.1-0.1-0.2-0.1-0.2-0.2l-3.3-6.6
	c-0.1-0.1-0.1-0.2-0.1-0.3s0-0.2,0-0.3s0.1-0.2,0.2-0.3s0.2-0.2,0.4-0.2c0.1-0.1,0.2-0.1,0.3-0.2c0.1,0,0.2-0.1,0.3-0.1
	c0.1,0,0.2,0,0.3,0c0.1,0,0.2,0,0.4,0.1l3.6,1.2c0.8,0.3,1.5,0.5,2.2,0.6c0.6,0.1,1.1,0.2,1.6,0.2c0.4,0,0.8,0,1.1-0.1
	c0.3-0.1,0.6-0.2,0.9-0.3c0.2-0.1,0.4-0.3,0.6-0.5s0.3-0.4,0.4-0.6c0.1-0.2,0.1-0.5,0.1-0.8s-0.1-0.6-0.3-0.9
	c-0.2-0.4-0.4-0.7-0.6-0.9s-0.5-0.5-0.7-0.6c-0.2-0.2-0.4-0.3-0.6-0.4c-0.2-0.1-0.4-0.2-0.4-0.4c0-0.1-0.1-0.2,0-0.3
	c0-0.1,0.1-0.2,0.1-0.3c0.1-0.1,0.1-0.1,0.2-0.2c0.1-0.1,0.2-0.1,0.3-0.2c0.1,0,0.2-0.1,0.3-0.1c0.1,0,0.2-0.1,0.2-0.1
	c0.1,0,0.1,0,0.2,0s0.2,0,0.3,0.1c0.1,0,0.3,0.1,0.5,0.3c0.2,0.1,0.4,0.3,0.7,0.5c0.3,0.2,0.5,0.5,0.7,0.8s0.5,0.6,0.7,1
	C443.1,131.7,443.3,132.3,443.4,132.8z M460.7,183c0.1,0.2,0.3,0.4,0.4,0.6c0.2,0.4,0.3,0.7,0.3,1s0,0.6-0.1,0.8s-0.3,0.5-0.5,0.6
	c-0.2,0.2-0.5,0.4-0.9,0.6c-0.3,0.2-0.6,0.3-1,0.3c-0.3,0.1-0.6,0.1-1,0c-0.3-0.1-0.6-0.2-0.9-0.4s-0.5-0.5-0.7-0.8
	c-0.2-0.4-0.3-0.7-0.3-1s0.1-0.6,0.3-0.9c0.2-0.3,0.6-0.7,1-1s1-0.7,1.8-1.1c0.1,0.1,0.3,0.2,0.4,0.3c0.2,0.1,0.4,0.3,0.5,0.5
	C460.4,182.6,460.5,182.8,460.7,183z M453.1,157.7l-5.6,2.8l-1.7-3.3L453.1,157.7z"/>
</svg>
